<?xml version="1.0" encoding="UTF-8" standalone="no"?>
<svg
   width="32.36348"
   height="32.363476"
   viewBox="0 0 32.363513 32.363476"
   fill="none"
   version="1.1"
   id="svg1"
   sodipodi:docname="favicon.svg"
   inkscape:version="1.3 (0e150ed6c4, 2023-07-21)"
   xmlns:inkscape="http://www.inkscape.org/namespaces/inkscape"
   xmlns:sodipodi="http://sodipodi.sourceforge.net/DTD/sodipodi-0.dtd"
   xmlns="http://www.w3.org/2000/svg"
   xmlns:svg="http://www.w3.org/2000/svg">
  <sodipodi:namedview
     id="namedview1"
     pagecolor="#505050"
     bordercolor="#ffffff"
     borderopacity="1"
     inkscape:showpageshadow="0"
     inkscape:pageopacity="0"
     inkscape:pagecheckerboard="1"
     inkscape:deskcolor="#505050"
     inkscape:zoom="7.5402594"
     inkscape:cx="42.107305"
     inkscape:cy="28.977783"
     inkscape:window-width="1920"
     inkscape:window-height="991"
     inkscape:window-x="-9"
     inkscape:window-y="-9"
     inkscape:window-maximized="1"
     inkscape:current-layer="svg1" />
  <desc
     id="desc1">&#10;			Created with Pixso.&#10;	</desc>
  <defs
     id="defs1" />
  <circle
     id="Ellipse 1"
     cx="16.181759"
     cy="16.181738"
     r="16.181755"
     fill="#ffc637"
     fill-opacity="1" />
  <path
     id="Vector"
     d="m 20.981796,11.539975 h -2 v -0.639999 c 0,-0.5 -0.21,-0.99 -0.59,-1.35 -0.37,-0.35 -0.88,-0.55 -1.41,-0.55 h -1.34 c -0.53,0 -1.04,0.2 -1.41,0.55 -0.38,0.36 -0.59,0.85 -0.59,1.35 v 0.64 h -2 c -0.88,0 -1.7300001,0.34 -2.3500001,0.929999 -0.63,0.6 -0.98,1.41 -0.98,2.25 v 5.09 c 0,0.850001 0.35,1.66 0.98,2.25 0.62,0.600001 1.4700001,0.93 2.3500001,0.940001 h 9.34 c 0.88,-0.01 1.73,-0.34 2.35,-0.940001 0.63,-0.59 0.98,-1.399999 0.98,-2.25 v -5.09 c 0,-0.84 -0.35,-1.649999 -0.98,-2.25 -0.62,-0.589999 -1.47,-0.929999 -2.35,-0.93 z m -6,-0.64 c 0,-0.16 0.07,-0.33 0.19,-0.449999 0.13,-0.12 0.3,-0.18 0.47,-0.18 h 1.34 c 0.17,0 0.34,0.06 0.47,0.18 0.12,0.119999 0.19,0.289999 0.19,0.449999 v 0.64 h -2.66 z m 3.33,7 h -1.33 v 1.28 c 0,0.17 -0.07,0.33 -0.2,0.45 -0.12,0.12 -0.29,0.18 -0.47,0.18 -0.18,0 -0.35,-0.06 -0.47,-0.18 -0.13,-0.12 -0.2,-0.28 -0.2,-0.45 v -1.28 h -1.33 c -0.18,0 -0.35,-0.06 -0.47,-0.18 -0.13,-0.12 -0.2,-0.28 -0.2,-0.45 0,-0.17 0.07,-0.33 0.2,-0.45 0.12,-0.12 0.29,-0.19 0.47,-0.19 h 1.33 v -1.27 c 0,-0.17 0.07,-0.33 0.2,-0.45 0.12,-0.12 0.29,-0.19 0.47,-0.19 0.18,0 0.35,0.07 0.47,0.19 0.13,0.12 0.2,0.28 0.2,0.45 v 1.27 h 1.33 c 0.18,0 0.35,0.07 0.47,0.19 0.13,0.12 0.2,0.28 0.2,0.45 0,0.17 -0.07,0.33 -0.2,0.45 -0.12,0.12 -0.29,0.18 -0.47,0.18 z"
     fill="#020043"
     fill-opacity="1"
     fill-rule="evenodd" />
</svg>
