<svg width="1720.000000" height="688.000000" viewBox="0 0 1720 688" fill="none" xmlns="http://www.w3.org/2000/svg" xmlns:xlink="http://www.w3.org/1999/xlink">
	<desc>
			Created with Pixso.
	</desc>
	<defs/>
	<g style="mix-blend-mode:color-burn">
		<path id="Vector" d="M1597.12 114.64L1720 114.64L1720 229.32L1597.12 229.32L1597.12 114.64Z" fill="#C1D5DE" fill-opacity="1.000000" fill-rule="evenodd"/>
		<path id="Vector" d="M1597.12 229.32L1720 229.32L1720 344L1597.12 344L1597.12 229.32Z" fill="#C7DBE5" fill-opacity="1.000000" fill-rule="evenodd"/>
		<path id="Vector" d="M1597.12 458.64L1720 458.64L1720 573.32L1597.12 573.32L1597.12 458.64Z" fill="#E2F5FF" fill-opacity="1.000000" fill-rule="evenodd"/>
		<path id="Vector" d="M1474.28 0L1597.12 0L1597.12 114.64L1474.28 114.64L1474.28 0Z" fill="#F1FAFF" fill-opacity="1.000000" fill-rule="evenodd"/>
		<path id="Vector" d="M1474.28 114.64L1597.12 114.64L1597.12 229.32L1474.28 229.32L1474.28 114.64Z" fill="#DEF4FF" fill-opacity="1.000000" fill-rule="evenodd"/>
		<path id="Vector" d="M1474.28 344L1597.12 344L1597.12 458.64L1474.28 458.64L1474.28 344Z" fill="#C7DBE5" fill-opacity="1.000000" fill-rule="evenodd"/>
		<path id="Vector" d="M1474.28 458.64L1597.12 458.64L1597.12 573.32L1474.28 573.32L1474.28 458.64Z" fill="#DEF4FF" fill-opacity="1.000000" fill-rule="evenodd"/>
		<path id="Vector" d="M1474.28 573.32L1597.12 573.32L1597.12 688L1474.28 688L1474.28 573.32Z" fill="#E8F7FF" fill-opacity="1.000000" fill-rule="evenodd"/>
		<path id="Vector" d="M1351.44 0L1474.28 0L1474.28 114.64L1351.44 114.64L1351.44 0Z" fill="#F6FCFF" fill-opacity="1.000000" fill-rule="evenodd"/>
		<path id="Vector" d="M1351.44 114.64L1474.28 114.64L1474.28 229.32L1351.44 229.32L1351.44 114.64Z" fill="#E3F6FF" fill-opacity="1.000000" fill-rule="evenodd"/>
		<path id="Vector" d="M1351.44 229.32L1474.28 229.32L1474.28 344L1351.44 344L1351.44 229.32Z" fill="#D7ECF7" fill-opacity="1.000000" fill-rule="evenodd"/>
		<path id="Vector" d="M1351.44 344L1474.28 344L1474.28 458.64L1351.44 458.64L1351.44 344Z" fill="#E3F6FF" fill-opacity="1.000000" fill-rule="evenodd"/>
		<path id="Vector" d="M1351.44 458.64L1474.28 458.64L1474.28 573.32L1351.44 573.32L1351.44 458.64Z" fill="#EAF8FF" fill-opacity="1.000000" fill-rule="evenodd"/>
		<path id="Vector" d="M1351.44 573.32L1474.28 573.32L1474.28 688L1351.44 688L1351.44 573.32Z" fill="#EDF9FF" fill-opacity="1.000000" fill-rule="evenodd"/>
		<path id="Vector" d="M1228.56 114.64L1351.44 114.64L1351.44 229.32L1228.56 229.32L1228.56 114.64Z" fill="#E1F5FF" fill-opacity="1.000000" fill-rule="evenodd"/>
		<path id="Vector" d="M1228.56 229.32L1351.44 229.32L1351.44 344L1228.56 344L1228.56 229.32Z" fill="#B9CCD5" fill-opacity="1.000000" fill-rule="evenodd"/>
		<path id="Vector" d="M1228.56 344L1351.44 344L1351.44 458.64L1228.56 458.64L1228.56 344Z" fill="#D9EFFA" fill-opacity="1.000000" fill-rule="evenodd"/>
		<path id="Vector" d="M1228.56 573.32L1351.44 573.32L1351.44 688L1228.56 688L1228.56 573.32Z" fill="#E8F7FF" fill-opacity="1.000000" fill-rule="evenodd"/>
		<path id="Vector" d="M1105.72 0L1228.56 0L1228.56 114.64L1105.72 114.64L1105.72 0Z" fill="#F5FCFF" fill-opacity="1.000000" fill-rule="evenodd"/>
		<path id="Vector" d="M1105.72 114.64L1228.56 114.64L1228.56 229.32L1105.72 229.32L1105.72 114.64Z" fill="#EAF8FF" fill-opacity="1.000000" fill-rule="evenodd"/>
		<path id="Vector" d="M1105.72 344L1228.56 344L1228.56 458.64L1105.72 458.64L1105.72 344Z" fill="#C4D7E1" fill-opacity="1.000000" fill-rule="evenodd"/>
		<path id="Vector" d="M1105.72 458.64L1228.56 458.64L1228.56 573.32L1105.72 573.32L1105.72 458.64Z" fill="#DEF4FF" fill-opacity="1.000000" fill-rule="evenodd"/>
		<path id="Vector" d="M982.88 0L1105.72 0L1105.72 114.64L982.88 114.64L982.88 0Z" fill="#F6FCFF" fill-opacity="1.000000" fill-rule="evenodd"/>
		<path id="Vector" d="M982.88 114.64L1105.72 114.64L1105.72 229.32L982.88 229.32L982.88 114.64Z" fill="#E9F8FF" fill-opacity="1.000000" fill-rule="evenodd"/>
		<path id="Vector" d="M982.88 229.32L1105.72 229.32L1105.72 344L982.88 344L982.88 229.32Z" fill="#CFE4EE" fill-opacity="1.000000" fill-rule="evenodd"/>
		<path id="Vector" d="M982.88 344L1105.72 344L1105.72 458.64L982.88 458.64L982.88 344Z" fill="#C7DBE5" fill-opacity="1.000000" fill-rule="evenodd"/>
		<path id="Vector" d="M982.88 458.64L1105.72 458.64L1105.72 573.32L982.88 573.32L982.88 458.64Z" fill="#D7ECF7" fill-opacity="1.000000" fill-rule="evenodd"/>
		<path id="Vector" d="M982.88 573.32L1105.72 573.32L1105.72 688L982.88 688L982.88 573.32Z" fill="#E5F6FF" fill-opacity="1.000000" fill-rule="evenodd"/>
		<path id="Vector" d="M860 114.64L982.88 114.64L982.88 229.32L860 229.32L860 114.64Z" fill="#E5F6FF" fill-opacity="1.000000" fill-rule="evenodd"/>
		<path id="Vector" d="M860 229.32L982.88 229.32L982.88 344L860 344L860 229.32Z" fill="#C7DBE5" fill-opacity="1.000000" fill-rule="evenodd"/>
		<path id="Vector" d="M860 458.64L982.88 458.64L982.88 573.32L860 573.32L860 458.64Z" fill="#C9DDE7" fill-opacity="1.000000" fill-rule="evenodd"/>
		<path id="Vector" d="M860 573.32L982.88 573.32L982.88 688L860 688L860 573.32Z" fill="#E1F5FF" fill-opacity="1.000000" fill-rule="evenodd"/>
		<path id="Vector" d="M737.16 0L860 0L860 114.64L737.16 114.64L737.16 0Z" fill="#F1FAFF" fill-opacity="1.000000" fill-rule="evenodd"/>
		<path id="Vector" d="M737.16 114.64L860 114.64L860 229.32L737.16 229.32L737.16 114.64Z" fill="#E1F5FF" fill-opacity="1.000000" fill-rule="evenodd"/>
		<path id="Vector" d="M737.16 229.32L860 229.32L860 344L737.16 344L737.16 229.32Z" fill="#C1D5DE" fill-opacity="1.000000" fill-rule="evenodd"/>
		<path id="Vector" d="M737.16 344L860 344L860 458.64L737.16 458.64L737.16 344Z" fill="#DDF3FD" fill-opacity="1.000000" fill-rule="evenodd"/>
		<path id="Vector" d="M737.16 458.64L860 458.64L860 573.32L737.16 573.32L737.16 458.64Z" fill="#C1D5DE" fill-opacity="1.000000" fill-rule="evenodd"/>
		<path id="Vector" d="M614.28 114.64L737.16 114.64L737.16 229.32L614.28 229.32L614.28 114.64Z" fill="#D9EFFA" fill-opacity="1.000000" fill-rule="evenodd"/>
		<path id="Vector" d="M614.28 344L737.16 344L737.16 458.64L614.28 458.64L614.28 344Z" fill="#CFE4EE" fill-opacity="1.000000" fill-rule="evenodd"/>
		<path id="Vector" d="M614.28 458.64L737.16 458.64L737.16 573.32L614.28 573.32L614.28 458.64Z" fill="#BCCED8" fill-opacity="1.000000" fill-rule="evenodd"/>
		<path id="Vector" d="M614.28 573.32L737.16 573.32L737.16 688L614.28 688L614.28 573.32Z" fill="#BFD2DB" fill-opacity="1.000000" fill-rule="evenodd"/>
		<path id="Vector" d="M491.44 0L614.28 0L614.28 114.64L491.44 114.64L491.44 0Z" fill="#ECF9FF" fill-opacity="1.000000" fill-rule="evenodd"/>
		<path id="Vector" d="M491.44 114.64L614.28 114.64L614.28 229.32L491.44 229.32L491.44 114.64Z" fill="#E1F5FF" fill-opacity="1.000000" fill-rule="evenodd"/>
		<path id="Vector" d="M491.44 229.32L614.28 229.32L614.28 344L491.44 344L491.44 229.32Z" fill="#DEF4FF" fill-opacity="1.000000" fill-rule="evenodd"/>
		<path id="Vector" d="M491.44 344L614.28 344L614.28 458.64L491.44 458.64L491.44 344Z" fill="#D9EFFA" fill-opacity="1.000000" fill-rule="evenodd"/>
		<path id="Vector" d="M491.44 573.32L614.28 573.32L614.28 688L491.44 688L491.44 573.32Z" fill="#A9BAC3" fill-opacity="1.000000" fill-rule="evenodd"/>
		<path id="Vector" d="M368.56 0L491.4 0L491.4 114.64L368.56 114.64L368.56 0Z" fill="#F0FAFF" fill-opacity="1.000000" fill-rule="evenodd"/>
		<path id="Vector" d="M368.56 114.64L491.4 114.64L491.4 229.32L368.56 229.32L368.56 114.64Z" fill="#E8F7FF" fill-opacity="1.000000" fill-rule="evenodd"/>
		<path id="Vector" d="M368.56 229.32L491.4 229.32L491.4 344L368.56 344L368.56 229.32Z" fill="#E3F6FF" fill-opacity="1.000000" fill-rule="evenodd"/>
		<path id="Vector" d="M368.56 344L491.4 344L491.4 458.64L368.56 458.64L368.56 344Z" fill="#E5F6FF" fill-opacity="1.000000" fill-rule="evenodd"/>
		<path id="Vector" d="M368.56 458.64L491.4 458.64L491.4 573.32L368.56 573.32L368.56 458.64Z" fill="#DDF3FD" fill-opacity="1.000000" fill-rule="evenodd"/>
		<path id="Vector" d="M245.72 114.64L368.6 114.64L368.6 229.32L245.72 229.32L245.72 114.64Z" fill="#E1F5FF" fill-opacity="1.000000" fill-rule="evenodd"/>
		<path id="Vector" d="M245.72 229.32L368.6 229.32L368.6 344L245.72 344L245.72 229.32Z" fill="#CCE0EA" fill-opacity="1.000000" fill-rule="evenodd"/>
		<path id="Vector" d="M245.72 344L368.6 344L368.6 458.64L245.72 458.64L245.72 344Z" fill="#B7C9D2" fill-opacity="1.000000" fill-rule="evenodd"/>
		<path id="Vector" d="M245.72 458.64L368.6 458.64L368.6 573.32L245.72 573.32L245.72 458.64Z" fill="#CFE4EE" fill-opacity="1.000000" fill-rule="evenodd"/>
		<path id="Vector" d="M245.72 573.32L368.6 573.32L368.6 688L245.72 688L245.72 573.32Z" fill="#C4D7E1" fill-opacity="1.000000" fill-rule="evenodd"/>
		<path id="Vector" d="M122.88 0L245.72 0L245.72 114.64L122.88 114.64L122.88 0Z" fill="#E8F7FF" fill-opacity="1.000000" fill-rule="evenodd"/>
		<path id="Vector" d="M122.88 114.64L245.72 114.64L245.72 229.32L122.88 229.32L122.88 114.64Z" fill="#DDF3FD" fill-opacity="1.000000" fill-rule="evenodd"/>
		<path id="Vector" d="M122.88 229.32L245.72 229.32L245.72 344L122.88 344L122.88 229.32Z" fill="#E2F5FF" fill-opacity="1.000000" fill-rule="evenodd"/>
		<path id="Vector" d="M122.88 458.64L245.72 458.64L245.72 573.32L122.88 573.32L122.88 458.64Z" fill="#D9EFFA" fill-opacity="1.000000" fill-rule="evenodd"/>
		<path id="Vector" d="M122.88 573.32L245.72 573.32L245.72 688L122.88 688L122.88 573.32Z" fill="#E8F7FF" fill-opacity="1.000000" fill-rule="evenodd"/>
		<path id="Vector" d="M0 0L122.88 0L122.88 114.64L0 114.64L0 0Z" fill="#D9EFFA" fill-opacity="1.000000" fill-rule="evenodd"/>
		<path id="Vector" d="M0 229.32L122.88 229.32L122.88 344L0 344L0 229.32Z" fill="#D9EFFA" fill-opacity="1.000000" fill-rule="evenodd"/>
		<path id="Vector" d="M0 344L122.88 344L122.88 458.64L0 458.64L0 344Z" fill="#E5F6FF" fill-opacity="1.000000" fill-rule="evenodd"/>
		<path id="Vector" d="M0 458.64L122.88 458.64L122.88 573.32L0 573.32L0 458.64Z" fill="#E8F7FF" fill-opacity="1.000000" fill-rule="evenodd"/>
	</g>
</svg>
